<svg xmlns="http://www.w3.org/2000/svg" width="900" height="300" viewBox="0 0 900 300" fill="none"><g clip-path="url(#clip0_230:8869)"><path d="M499.073 65.8625V70.5659C497.23 68.8139 494.811 67.7922 492.268 67.6916C490.998 67.6882 489.741 67.9411 488.571 68.435C487.402 68.929 486.345 69.6537 485.463 70.5659C484.584 71.4591 483.899 72.523 483.448 73.6916C482.998 74.8602 482.793 76.1086 482.846 77.3596C482.777 78.6123 482.974 79.8654 483.426 81.0363C483.877 82.2073 484.571 83.2696 485.463 84.1533C486.345 85.0654 487.402 85.7902 488.571 86.2842C489.741 86.7781 490.998 87.031 492.268 87.0276C493.449 87.0438 494.616 86.7749 495.67 86.2437C496.194 86.2437 496.717 85.7211 497.241 85.4598L499.073 84.1533V88.8566C496.894 90.0121 494.473 90.6387 492.006 90.6857C490.29 90.7066 488.588 90.3687 487.011 89.6937C485.433 89.0186 484.014 88.0215 482.846 86.7663C481.581 85.5501 480.58 84.0877 479.905 82.4697C479.23 80.8516 478.895 79.1123 478.92 77.3596C478.934 74.2087 480.044 71.1606 482.061 68.7368C483.333 67.21 484.937 65.9928 486.751 65.1778C488.565 64.3628 490.541 63.9715 492.53 64.0335C494.839 64.0178 497.107 64.6516 499.073 65.8625V65.8625Z" fill="#5C5C5C"></path><path d="M505.354 82.0627C505.328 80.9551 505.523 79.8535 505.927 78.8218C506.332 77.7901 506.937 76.8489 507.709 76.0529C509.389 74.409 511.638 73.4734 513.991 73.4399C515.674 73.4734 517.31 73.9972 518.699 74.9468C520.088 75.8964 521.168 77.2305 521.808 78.7851C522.447 80.3396 522.618 82.0468 522.298 83.6968C521.979 85.3469 521.184 86.8678 520.01 88.0726C519.227 88.9506 518.255 89.6414 517.168 90.0937C516.08 90.546 514.905 90.7483 513.729 90.6855C512.594 90.7275 511.463 90.5145 510.422 90.0623C509.38 89.6101 508.453 88.9301 507.709 88.0726C506.937 87.2766 506.332 86.3354 505.927 85.3037C505.523 84.272 505.328 83.1703 505.354 82.0627V82.0627ZM509.018 82.0627C509.018 83.4762 509.477 84.8514 510.327 85.9822C511.359 86.829 512.654 87.2908 513.991 87.2887C515.249 87.2989 516.465 86.832 517.393 85.9822C518.242 84.8514 518.702 83.4762 518.702 82.0627C518.752 80.7208 518.284 79.4108 517.393 78.4046C516.987 77.8974 516.468 77.4917 515.877 77.2195C515.287 76.9474 514.641 76.8164 513.991 76.8368C513.302 76.8148 512.617 76.9438 511.984 77.2147C511.351 77.4856 510.785 77.8917 510.327 78.4046C509.436 79.4108 508.967 80.7208 509.018 82.0627V82.0627Z" fill="#5C5C5C"></path><path d="M533.096 62.2043V90.1631H529.171V62.2043H533.096Z" fill="#5C5C5C"></path><path d="M544.089 62.2043V90.1631H540.425V62.2043H544.089Z" fill="#5C5C5C"></path><path d="M566.335 82.8467H554.819C554.785 83.473 554.883 84.0996 555.109 84.685C555.334 85.2705 555.682 85.8017 556.128 86.2435C556.513 86.6015 556.966 86.8785 557.461 87.058C557.955 87.2376 558.481 87.316 559.007 87.2887C559.432 87.3247 559.86 87.2738 560.265 87.139C560.67 87.0042 561.043 86.7885 561.362 86.5048C562.249 85.9113 562.969 85.1019 563.456 84.1531L566.596 85.9822L565.026 88.0726L563.194 89.6404L561.362 90.4243H559.007C557.933 90.478 556.86 90.2951 555.865 89.8887C554.87 89.4823 553.977 88.8623 553.249 88.0726C552.444 87.2458 551.82 86.262 551.415 85.1828C551.009 84.1036 550.832 82.9524 550.893 81.8015C550.808 79.5271 551.552 77.299 552.987 75.5304C553.741 74.7719 554.638 74.17 555.626 73.7592C556.615 73.3484 557.674 73.137 558.745 73.137C559.815 73.137 560.875 73.3484 561.863 73.7592C562.852 74.17 563.749 74.7719 564.503 75.5304C565.906 77.4045 566.559 79.7336 566.335 82.0628V82.8467ZM562.671 79.9724C562.54 79.0485 562.061 78.2092 561.331 77.6264C560.602 77.0435 559.676 76.7611 558.745 76.8368H557.436L556.389 77.3594L555.604 78.4046C555.342 78.6659 555.342 79.1885 555.081 79.7111L562.671 79.9724Z" fill="#5C5C5C"></path><path d="M588.843 89.9016V91.7307C588.881 92.2666 588.792 92.8039 588.581 93.2985C588.382 94.4763 587.835 95.5679 587.011 96.4341C586.31 97.341 585.39 98.0562 584.338 98.5131C583.285 98.9699 582.134 99.1536 580.991 99.047C580.041 99.1103 579.087 98.9809 578.187 98.6666C577.287 98.3522 576.461 97.8595 575.757 97.2179C574.992 96.6242 574.363 95.8741 573.911 95.0179C573.46 94.1617 573.197 93.2192 573.14 92.2533H577.066C577.076 92.8984 577.256 93.5294 577.589 94.0824C577.995 94.5896 578.514 94.9953 579.105 95.2674C579.695 95.5396 580.341 95.6706 580.991 95.6502C583.87 95.6502 585.179 94.0824 585.179 90.6855V88.3339C584.52 89.0696 583.713 89.6591 582.812 90.0642C581.91 90.4693 580.933 90.681 579.945 90.6855C578.95 90.7165 577.962 90.5208 577.055 90.1133C576.148 89.7058 575.346 89.0973 574.71 88.3339C573.965 87.4774 573.397 86.4827 573.037 85.4066C572.678 84.3304 572.535 83.1941 572.616 82.0627C572.54 79.9117 573.185 77.7967 574.448 76.0529C575.174 75.2426 576.061 74.5918 577.052 74.142C578.043 73.6922 579.118 73.4531 580.206 73.4399C581.157 73.4479 582.094 73.6624 582.952 74.0685C583.811 74.4747 584.571 75.0626 585.179 75.7916V73.9625H588.843V89.9016ZM585.441 82.0627C585.492 80.7208 585.023 79.4108 584.132 78.4046C583.726 77.8974 583.207 77.4917 582.616 77.2195C582.026 76.9474 581.38 76.8164 580.73 76.8368C580.085 76.8518 579.451 76.9987 578.866 77.2684C578.28 77.5381 577.757 77.9248 577.327 78.4046C576.71 79.5309 576.352 80.7807 576.28 82.0627C576.312 83.3512 576.672 84.6102 577.327 85.7209C577.757 86.2007 578.28 86.5874 578.866 86.8571C579.451 87.1267 580.085 87.2736 580.73 87.2887C581.383 87.3312 582.036 87.21 582.63 86.9362C583.225 86.6624 583.741 86.2446 584.132 85.7209C584.98 84.69 585.443 83.3968 585.441 82.0627V82.0627Z" fill="#5C5C5C"></path><path d="M611.089 82.8469H599.573C599.539 83.4732 599.638 84.0998 599.863 84.6853C600.089 85.2707 600.436 85.8019 600.882 86.2437C601.267 86.6017 601.72 86.8787 602.215 87.0583C602.71 87.2378 603.235 87.3162 603.761 87.2889C604.186 87.3249 604.614 87.274 605.019 87.1392C605.424 87.0045 605.798 86.7887 606.116 86.505C607.003 85.9115 607.724 85.1022 608.21 84.1534L611.351 85.9824L609.78 88.0728L607.948 89.6406L606.116 90.4245H603.761C602.648 90.4815 601.535 90.3013 600.497 89.8958C599.459 89.4903 598.52 88.8689 597.741 88.0728C596.382 86.2636 595.647 84.0632 595.647 81.8017C595.647 79.5402 596.382 77.3398 597.741 75.5306C598.48 74.7548 599.375 74.1441 600.368 73.7387C601.36 73.3334 602.427 73.1426 603.499 73.1789C604.534 73.1272 605.567 73.3122 606.52 73.7197C607.472 74.1273 608.319 74.7466 608.995 75.5306C609.753 76.3789 610.329 77.3726 610.689 78.4508C611.049 79.529 611.185 80.6692 611.089 81.8017V82.8469ZM607.425 79.9726C607.294 79.0487 606.815 78.2095 606.086 77.6266C605.356 77.0437 604.431 76.7613 603.499 76.8371H602.19L601.144 77.3597L600.358 78.4048C600.038 78.7669 599.853 79.2285 599.835 79.7113L607.425 79.9726Z" fill="#5C5C5C"></path><path d="M630.457 82.0629C630.415 80.9294 630.628 79.801 631.081 78.7609C631.534 77.7207 632.215 76.7954 633.074 76.053C633.834 75.2127 634.763 74.5409 635.8 74.0811C636.837 73.6213 637.959 73.3838 639.093 73.3838C640.228 73.3838 641.35 73.6213 642.387 74.0811C643.424 74.5409 644.352 75.2127 645.113 76.053C645.955 76.8125 646.628 77.7397 647.088 78.7749C647.549 79.8101 647.787 80.9302 647.787 82.0629C647.787 83.1956 647.549 84.3156 647.088 85.3508C646.628 86.386 645.955 87.3132 645.113 88.0727C644.369 88.9302 643.443 89.6102 642.401 90.0624C641.359 90.5147 640.229 90.7277 639.093 90.6857C637.919 90.7301 636.75 90.5195 635.665 90.0684C634.581 89.6172 633.607 88.9363 632.812 88.0727C632.04 87.2767 631.435 86.3355 631.03 85.3038C630.626 84.2721 630.431 83.1704 630.457 82.0629V82.0629ZM634.382 82.0629C634.322 82.7707 634.407 83.4833 634.632 84.1572C634.857 84.8311 635.218 85.4521 635.691 85.9823C636.613 86.8458 637.829 87.3263 639.093 87.3263C640.357 87.3263 641.574 86.8458 642.496 85.9823C642.969 85.4521 643.329 84.8311 643.554 84.1572C643.779 83.4833 643.865 82.7707 643.804 82.0629C643.899 81.3929 643.829 80.71 643.601 80.0728C643.373 79.4357 642.994 78.8632 642.496 78.4047C642.104 77.881 641.588 77.4632 640.994 77.1894C640.4 76.9156 639.746 76.7944 639.093 76.8369C638.44 76.8704 637.8 77.0321 637.209 77.313C636.619 77.5939 636.089 77.9884 635.652 78.4739C635.214 78.9594 634.877 79.5263 634.659 80.1421C634.441 80.758 634.347 81.4107 634.382 82.0629Z" fill="#5C5C5C"></path><path d="M658.199 77.3595V90.163H654.535V77.3595H653.226V73.9626H654.535V67.6915C654.327 66.2151 654.703 64.7161 655.582 63.5107C656.082 62.8938 656.724 62.4057 657.452 62.0874C658.181 61.7691 658.975 61.63 659.769 61.6817L662.386 62.2043V66.1237H662.125L660.031 65.6011C659.787 65.5804 659.542 65.6169 659.315 65.7076C659.087 65.7983 658.884 65.9408 658.722 66.1237C658.349 67.0348 658.17 68.0139 658.199 68.998V74.2239H662.386V77.6208L658.199 77.3595Z" fill="#5C5C5C"></path><path d="M479.182 143.729L484.678 116.293L493.576 136.151L502.475 116.293L507.448 143.729H503.522L500.904 128.312L493.315 144.774L485.986 128.312L483.369 143.729H479.182Z" fill="#5C5C5C"></path><path d="M526.815 127.528H530.479V143.729H526.815V142.161C525.47 143.442 523.7 144.186 521.842 144.251C520.786 144.272 519.739 144.046 518.785 143.593C517.831 143.139 516.996 142.47 516.346 141.638C514.987 139.929 514.248 137.811 514.248 135.629C514.248 133.446 514.987 131.328 516.346 129.619C517.009 128.802 517.847 128.143 518.798 127.691C519.749 127.239 520.789 127.005 521.842 127.006C522.789 127.031 523.721 127.253 524.577 127.658C525.434 128.062 526.196 128.641 526.815 129.358V127.528ZM517.916 135.629C517.866 136.971 518.334 138.281 519.225 139.287C519.575 139.79 520.046 140.197 520.595 140.471C521.144 140.745 521.753 140.877 522.366 140.855C522.993 140.889 523.621 140.79 524.207 140.565C524.793 140.34 525.325 139.993 525.768 139.548C526.617 138.417 527.077 137.042 527.077 135.629C527.079 134.295 526.616 133.001 525.768 131.97C525.377 131.447 524.861 131.029 524.266 130.755C523.672 130.481 523.019 130.36 522.366 130.403C521.753 130.381 521.144 130.513 520.595 130.787C520.046 131.06 519.575 131.468 519.225 131.97C518.377 133.001 517.914 134.295 517.916 135.629Z" fill="#5C5C5C"></path><path d="M547.491 130.403L544.35 131.97C543.827 130.925 543.303 130.403 542.518 130.403L541.733 130.925C541.471 130.925 541.21 131.448 541.21 131.709C541.21 131.97 541.995 133.016 543.565 133.538C545.005 134.081 546.334 134.877 547.491 135.89C547.863 136.265 548.149 136.716 548.33 137.213C548.51 137.709 548.581 138.238 548.538 138.764C548.569 139.516 548.419 140.265 548.1 140.947C547.781 141.629 547.303 142.224 546.706 142.684C546.197 143.203 545.585 143.611 544.909 143.881C544.233 144.151 543.508 144.277 542.78 144.251C541.523 144.316 540.28 143.968 539.24 143.26C538.2 142.552 537.421 141.524 537.022 140.332L540.163 138.764L541.21 140.332L542.78 140.855C544.089 140.855 544.612 140.332 544.612 139.025C544.544 138.643 544.391 138.28 544.165 137.963C543.938 137.647 543.644 137.385 543.304 137.196L541.995 136.674L540.948 136.151L538.593 134.583C538.063 133.816 537.788 132.902 537.807 131.97C537.924 130.693 538.486 129.497 539.394 128.59C540.303 127.683 541.501 127.123 542.78 127.006C543.814 127.044 544.813 127.387 545.651 127.992C546.49 128.596 547.13 129.435 547.491 130.403V130.403Z" fill="#5C5C5C"></path><path d="M563.979 130.403L560.839 131.97C560.775 131.532 560.555 131.131 560.218 130.843C559.881 130.555 559.45 130.398 559.007 130.403L558.221 130.925C557.96 130.925 557.96 131.448 557.96 131.709C557.96 131.97 558.483 133.016 560.054 133.538C561.555 133.943 562.915 134.757 563.979 135.89C564.351 136.265 564.637 136.716 564.818 137.213C564.999 137.709 565.07 138.238 565.026 138.764C565.052 139.491 564.925 140.214 564.655 140.889C564.385 141.564 563.976 142.175 563.456 142.684C562.288 143.681 560.805 144.236 559.268 144.251C558.011 144.316 556.768 143.968 555.728 143.26C554.688 142.552 553.909 141.524 553.51 140.332L556.651 138.764L557.698 140.332L559.268 140.855C560.577 140.855 561.362 140.332 561.362 139.025C561.267 138.617 561.074 138.238 560.801 137.919C560.527 137.601 560.181 137.353 559.792 137.196L558.745 136.674L557.436 136.151C556.604 135.837 555.878 135.293 555.343 134.583C554.991 134.248 554.716 133.841 554.535 133.39C554.355 132.94 554.273 132.455 554.296 131.97C554.275 131.321 554.406 130.676 554.679 130.087C554.952 129.497 555.358 128.979 555.866 128.574C556.325 128.061 556.891 127.655 557.524 127.384C558.157 127.113 558.842 126.984 559.53 127.006C560.518 127.093 561.46 127.459 562.248 128.06C563.036 128.661 563.636 129.474 563.979 130.403Z" fill="#5C5C5C"></path><path d="M583.085 127.528H586.749V143.729H583.085V142.161C581.74 143.442 579.97 144.186 578.112 144.251C577.056 144.272 576.009 144.046 575.055 143.593C574.101 143.139 573.266 142.47 572.616 141.638C571.257 139.929 570.518 137.811 570.518 135.629C570.518 133.446 571.257 131.328 572.616 129.619C573.279 128.802 574.117 128.143 575.068 127.691C576.019 127.239 577.059 127.005 578.112 127.006C579.059 127.031 579.991 127.253 580.847 127.658C581.704 128.062 582.466 128.641 583.085 129.358V127.528ZM574.186 135.629C574.136 136.971 574.604 138.281 575.495 139.287C575.845 139.79 576.316 140.197 576.865 140.471C577.414 140.745 578.023 140.877 578.636 140.855C579.263 140.889 579.891 140.79 580.477 140.565C581.063 140.34 581.595 139.993 582.038 139.548C582.887 138.417 583.347 137.042 583.347 135.629C583.349 134.295 582.886 133.001 582.038 131.97C581.647 131.447 581.131 131.029 580.536 130.755C579.942 130.481 579.289 130.36 578.636 130.403C578.03 130.421 577.435 130.571 576.893 130.842C576.351 131.113 575.874 131.498 575.495 131.97C574.647 133.001 574.184 134.295 574.186 135.629Z" fill="#5C5C5C"></path><path d="M610.042 143.468V145.297C609.832 145.791 609.742 146.328 609.781 146.864C609.581 148.042 609.034 149.134 608.21 150C607.479 150.873 606.555 151.563 605.51 152.017C604.465 152.471 603.328 152.675 602.191 152.613C600.192 152.725 598.226 152.071 596.694 150.784C595.315 149.481 594.474 147.71 594.339 145.819H598.003L598.788 147.648C599.179 148.172 599.696 148.59 600.29 148.864C600.884 149.137 601.538 149.259 602.191 149.216C604.808 149.216 606.378 147.648 606.378 144.251V141.9C605.709 142.623 604.901 143.204 604.001 143.609C603.102 144.013 602.13 144.231 601.144 144.251C600.116 144.251 599.099 144.043 598.154 143.639C597.209 143.234 596.356 142.643 595.648 141.9C594.253 140.109 593.514 137.896 593.554 135.629C593.572 133.45 594.308 131.339 595.648 129.619C596.292 128.83 597.1 128.189 598.015 127.741C598.931 127.293 599.933 127.048 600.953 127.023C601.972 126.999 602.985 127.194 603.921 127.597C604.858 128 605.696 128.601 606.378 129.358V127.528H610.042V143.468ZM606.378 135.629C606.473 134.959 606.403 134.276 606.175 133.639C605.947 133.001 605.568 132.429 605.07 131.97C604.719 131.468 604.248 131.06 603.7 130.787C603.151 130.513 602.542 130.381 601.929 130.403C601.276 130.36 600.622 130.481 600.028 130.755C599.434 131.029 598.918 131.447 598.527 131.97C597.79 133.044 597.423 134.328 597.48 135.629C597.38 136.934 597.752 138.231 598.527 139.287C598.918 139.811 599.434 140.228 600.028 140.502C600.622 140.776 601.276 140.897 601.929 140.855C602.579 140.875 603.225 140.744 603.816 140.472C604.406 140.2 604.925 139.794 605.331 139.287C606.106 138.231 606.477 136.934 606.378 135.629Z" fill="#5C5C5C"></path><path d="M632.289 136.412H620.511C620.567 137.656 621.027 138.848 621.82 139.809C622.245 140.188 622.742 140.475 623.282 140.655C623.822 140.835 624.393 140.903 624.96 140.855C625.344 140.87 625.727 140.808 626.087 140.674C626.446 140.539 626.775 140.334 627.054 140.071C627.839 139.809 628.363 139.025 629.148 137.719L632.289 139.548L630.718 141.638L629.148 143.206L627.054 143.99H624.699C623.625 144.044 622.552 143.861 621.557 143.455C620.562 143.048 619.669 142.428 618.941 141.638C617.447 139.889 616.627 137.666 616.627 135.367C616.627 133.069 617.447 130.846 618.941 129.096C619.617 128.312 620.464 127.693 621.416 127.285C622.369 126.878 623.402 126.693 624.437 126.745C625.511 126.691 626.583 126.874 627.578 127.28C628.573 127.686 629.467 128.307 630.195 129.096C631.63 130.865 632.373 133.093 632.289 135.367V136.412ZM628.363 133.538C628.236 132.661 627.795 131.86 627.121 131.283C626.447 130.706 625.586 130.394 624.699 130.403H623.39L622.343 130.925C621.82 131.187 621.558 131.709 621.296 131.97C621.035 132.232 621.035 132.754 620.773 133.277L628.363 133.538Z" fill="#5C5C5C"></path><path d="M487.295 175.346V197.295H483.369V175.346H477.35V171.688H493.053V175.346H487.295Z" fill="#5C5C5C"></path><path d="M498.549 169.336H502.475V182.401C503.618 181.327 505.097 180.681 506.662 180.572C507.488 180.57 508.306 180.73 509.069 181.044C509.833 181.358 510.527 181.819 511.112 182.401C512.181 183.821 512.651 185.603 512.42 187.365V197.295H508.756V187.627C508.789 186.727 508.61 185.832 508.233 185.014C507.964 184.651 507.606 184.365 507.193 184.182C506.78 183.998 506.327 183.925 505.877 183.969C505.364 183.933 504.85 184.035 504.39 184.265C503.93 184.495 503.54 184.844 503.26 185.275C502.617 186.57 502.346 188.017 502.475 189.456V197.295H498.549V169.336Z" fill="#5C5C5C"></path><path d="M534.667 189.978H523.151C523.117 190.605 523.215 191.231 523.441 191.817C523.667 192.402 524.014 192.933 524.46 193.375C524.845 193.733 525.298 194.01 525.793 194.19C526.287 194.369 526.813 194.448 527.339 194.42C527.764 194.456 528.192 194.406 528.597 194.271C529.002 194.136 529.375 193.92 529.694 193.637C530.581 193.043 531.302 192.234 531.788 191.285L534.929 193.114L533.358 195.204L531.526 196.772L529.694 197.556H527.339C526.265 197.61 525.192 197.427 524.197 197.02C523.202 196.614 522.309 195.994 521.581 195.204C520.809 194.408 520.203 193.467 519.799 192.435C519.395 191.404 519.2 190.302 519.225 189.195C519.14 186.92 519.884 184.692 521.319 182.923C522.073 182.165 522.97 181.563 523.958 181.152C524.947 180.742 526.006 180.53 527.077 180.53C528.147 180.53 529.207 180.742 530.195 181.152C531.184 181.563 532.081 182.165 532.835 182.923C534.176 184.728 534.826 186.953 534.667 189.195V189.978ZM531.003 187.104C530.872 186.18 530.393 185.341 529.663 184.758C528.934 184.175 528.008 183.893 527.077 183.969H525.768L524.721 184.491L523.936 185.536C523.616 185.898 523.431 186.36 523.413 186.843L531.003 187.104Z" fill="#5C5C5C"></path><path d="M541.733 181.094H545.397V182.662C545.87 181.997 546.499 181.459 547.229 181.094L549.061 180.572C550.174 180.676 551.249 181.034 552.202 181.617L550.37 185.014C550.091 184.75 549.762 184.545 549.402 184.411C549.043 184.276 548.66 184.215 548.276 184.23C546.444 184.23 545.397 185.798 545.397 188.933V197.295H541.733V181.094Z" fill="#5C5C5C"></path><path d="M568.69 181.094H572.616V197.295H568.69V195.727C567.345 197.008 565.576 197.752 563.718 197.817C562.661 197.838 561.615 197.612 560.661 197.159C559.707 196.705 558.872 196.036 558.222 195.204C556.863 193.495 556.123 191.377 556.123 189.195C556.123 187.012 556.863 184.894 558.222 183.185C558.917 182.406 559.762 181.774 560.706 181.325C561.649 180.876 562.673 180.62 563.718 180.572C564.668 180.58 565.605 180.794 566.464 181.2C567.322 181.606 568.082 182.194 568.69 182.923V181.094ZM559.792 189.195C559.741 190.537 560.21 191.847 561.1 192.853C561.507 193.36 562.026 193.766 562.616 194.038C563.207 194.31 563.853 194.441 564.503 194.421C565.682 194.418 566.811 193.948 567.644 193.114C568.117 192.584 568.477 191.963 568.702 191.289C568.927 190.615 569.012 189.902 568.952 189.195C569.026 188.526 568.946 187.849 568.72 187.215C568.493 186.581 568.125 186.007 567.644 185.536C567.293 185.033 566.822 184.626 566.274 184.352C565.725 184.079 565.116 183.947 564.503 183.969C563.858 183.984 563.224 184.131 562.639 184.4C562.054 184.67 561.53 185.057 561.1 185.536C560.252 186.567 559.79 187.861 559.792 189.195Z" fill="#5C5C5C"></path><path d="M583.87 206.179H579.944V181.094H583.87V182.923C584.478 182.194 585.238 181.606 586.097 181.2C586.956 180.794 587.893 180.58 588.843 180.572C589.887 180.62 590.911 180.876 591.855 181.325C592.799 181.774 593.643 182.406 594.339 183.185C595.715 184.884 596.455 187.009 596.433 189.195C596.473 191.462 595.734 193.675 594.339 195.466C593.63 196.209 592.777 196.8 591.833 197.205C590.888 197.609 589.871 197.817 588.843 197.817C587.893 197.809 586.956 197.595 586.097 197.189C585.238 196.783 584.478 196.195 583.87 195.466V206.179ZM592.507 189.195C592.564 187.894 592.197 186.61 591.46 185.536C591.031 185.057 590.507 184.67 589.922 184.4C589.336 184.131 588.702 183.984 588.058 183.969C587.445 183.947 586.836 184.079 586.287 184.352C585.738 184.626 585.267 185.033 584.917 185.536C584.066 186.566 583.601 187.86 583.601 189.195C583.601 190.53 584.066 191.823 584.917 192.853C585.267 193.356 585.738 193.763 586.287 194.037C586.836 194.311 587.445 194.443 588.058 194.421C588.702 194.405 589.336 194.259 589.922 193.989C590.507 193.719 591.031 193.333 591.46 192.853C592.257 191.808 592.631 190.502 592.507 189.195V189.195Z" fill="#5C5C5C"></path><path d="M602.714 174.301C602.672 174.017 602.697 173.727 602.788 173.454C602.879 173.182 603.033 172.935 603.238 172.733C603.467 172.476 603.75 172.273 604.066 172.138C604.383 172.002 604.725 171.938 605.07 171.949C605.376 171.938 605.681 172.004 605.955 172.141C606.229 172.278 606.465 172.481 606.64 172.733C606.897 172.962 607.1 173.244 607.236 173.56C607.372 173.876 607.436 174.218 607.425 174.562C607.376 175.166 607.094 175.728 606.64 176.13C606.465 176.381 606.229 176.585 605.955 176.722C605.681 176.859 605.376 176.925 605.07 176.914C604.725 176.925 604.383 176.86 604.066 176.725C603.75 176.589 603.467 176.386 603.238 176.13C603.012 175.888 602.846 175.596 602.755 175.278C602.664 174.96 602.65 174.625 602.714 174.301V174.301ZM606.902 181.094V197.295H603.238V181.094H606.902Z" fill="#5C5C5C"></path><path d="M623.913 183.969L620.773 185.536C620.249 184.491 619.726 183.969 618.941 183.969L617.894 184.491V185.275C617.894 185.798 618.679 186.582 619.988 187.104C621.53 187.592 622.956 188.393 624.175 189.456C624.835 190.271 625.204 191.282 625.222 192.33C625.188 193.085 625.006 193.826 624.685 194.511C624.364 195.196 623.911 195.811 623.352 196.32C622.793 196.83 622.139 197.225 621.427 197.481C620.715 197.738 619.959 197.852 619.202 197.817C617.954 197.841 616.729 197.476 615.698 196.774C614.666 196.072 613.879 195.067 613.445 193.898L616.847 192.33L617.632 193.898L619.464 194.421C620.773 194.421 621.296 193.898 621.296 192.591C621.201 192.183 621.008 191.804 620.735 191.485C620.461 191.167 620.115 190.919 619.726 190.762L618.679 190.24L617.632 189.717L615.277 188.149C614.747 187.382 614.472 186.468 614.491 185.536C614.481 184.28 614.949 183.066 615.8 182.14C616.766 181.155 618.083 180.591 619.464 180.572C620.452 180.659 621.394 181.025 622.182 181.626C622.97 182.227 623.57 183.04 623.913 183.969Z" fill="#5C5C5C"></path><path d="M634.906 184.491V197.295H630.98V184.491H629.41V181.094H630.98V175.084H634.906V181.094H637.785V184.491H634.906Z" fill="#5C5C5C"></path><path d="M652.441 183.969L649.3 185.536C648.777 184.491 648.253 183.969 647.468 183.969L646.683 184.491C646.421 184.491 646.16 185.014 646.16 185.275C646.16 185.536 646.945 186.582 648.515 187.104C649.954 187.647 651.284 188.443 652.441 189.456C652.813 189.831 653.099 190.282 653.28 190.779C653.46 191.275 653.531 191.804 653.488 192.33C653.519 193.082 653.369 193.831 653.05 194.513C652.731 195.195 652.253 195.79 651.656 196.25C651.147 196.769 650.535 197.177 649.859 197.447C649.183 197.717 648.458 197.843 647.73 197.817C646.473 197.882 645.23 197.534 644.19 196.826C643.15 196.118 642.371 195.09 641.972 193.898L645.113 192.33L646.16 193.898L647.73 194.421C649.039 194.421 649.562 193.898 649.562 192.591C649.494 192.209 649.341 191.846 649.115 191.529C648.888 191.213 648.594 190.951 648.253 190.762L646.945 190.24L645.898 189.717L643.543 188.149C643.013 187.382 642.738 186.468 642.757 185.536C642.874 184.259 643.436 183.063 644.344 182.156C645.253 181.249 646.451 180.689 647.73 180.572C648.764 180.61 649.763 180.953 650.601 181.558C651.439 182.162 652.08 183.001 652.441 183.969Z" fill="#5C5C5C"></path><path d="M672.07 189.194C672.028 188.061 672.241 186.933 672.694 185.892C673.147 184.852 673.828 183.927 674.687 183.185C675.448 182.344 676.377 181.672 677.413 181.213C678.45 180.753 679.572 180.515 680.707 180.515C681.841 180.515 682.963 180.753 684 181.213C685.037 181.672 685.966 182.344 686.726 183.185C687.9 184.389 688.695 185.91 689.014 187.56C689.334 189.21 689.163 190.918 688.524 192.472C687.884 194.027 686.804 195.361 685.415 196.31C684.026 197.26 682.39 197.784 680.707 197.817C679.533 197.862 678.363 197.651 677.278 197.2C676.194 196.749 675.22 196.068 674.425 195.204C673.654 194.408 673.048 193.467 672.643 192.435C672.239 191.404 672.044 190.302 672.07 189.194V189.194ZM675.996 189.194C675.936 189.902 676.021 190.615 676.246 191.289C676.471 191.963 676.831 192.584 677.304 193.114C678.226 193.977 679.443 194.458 680.707 194.458C681.971 194.458 683.187 193.977 684.109 193.114C684.583 192.584 684.943 191.963 685.168 191.289C685.393 190.615 685.478 189.902 685.418 189.194C685.453 188.542 685.359 187.89 685.141 187.274C684.923 186.658 684.586 186.091 684.148 185.605C683.711 185.12 683.182 184.726 682.591 184.445C682 184.164 681.36 184.002 680.707 183.969C680.054 183.926 679.4 184.047 678.806 184.321C678.212 184.595 677.696 185.013 677.304 185.536C676.806 185.995 676.427 186.567 676.199 187.204C675.971 187.842 675.901 188.524 675.996 189.194V189.194Z" fill="#5C5C5C"></path><path d="M699.813 184.491V197.295H696.148V184.491H694.84V181.094H696.148V174.823C695.992 173.35 696.363 171.869 697.195 170.642C697.696 170.025 698.337 169.537 699.066 169.219C699.795 168.901 700.589 168.762 701.383 168.813L704 169.336V173.255H703.477L701.645 172.733C701.401 172.712 701.155 172.748 700.928 172.839C700.701 172.93 700.498 173.072 700.336 173.255C699.963 174.166 699.784 175.146 699.813 176.13V181.355H704V184.752L699.813 184.491Z" fill="#5C5C5C"></path><path d="M478.92 238.057C478.92 235.421 479.703 232.845 481.17 230.653C482.636 228.462 484.721 226.754 487.16 225.745C489.599 224.737 492.283 224.473 494.872 224.987C497.461 225.501 499.84 226.77 501.706 228.634C503.573 230.498 504.844 232.872 505.359 235.457C505.874 238.042 505.61 240.722 504.6 243.157C503.59 245.592 501.879 247.673 499.684 249.137C497.489 250.602 494.908 251.383 492.268 251.383C488.923 251.29 485.703 250.096 483.108 247.986C481.729 246.735 480.64 245.198 479.917 243.483C479.194 241.768 478.854 239.917 478.92 238.057V238.057ZM482.846 238.057C482.753 239.336 482.965 240.619 483.466 241.8C483.967 242.981 484.741 244.027 485.725 244.851C486.557 245.755 487.569 246.478 488.695 246.973C489.821 247.467 491.038 247.724 492.268 247.725C493.538 247.728 494.795 247.476 495.964 246.982C497.134 246.488 498.191 245.763 499.073 244.851C500.747 242.982 501.672 240.564 501.672 238.057C501.672 235.55 500.747 233.132 499.073 231.263C498.193 230.346 497.137 229.617 495.968 229.118C494.798 228.62 493.54 228.363 492.268 228.363C490.996 228.363 489.738 228.62 488.569 229.118C487.399 229.617 486.343 230.346 485.463 231.263C484.571 232.147 483.877 233.209 483.426 234.38C482.975 235.551 482.777 236.804 482.846 238.057V238.057Z" fill="#5C5C5C"></path><path d="M512.682 234.66H516.346V236.228C517.501 234.98 519.097 234.23 520.795 234.137C521.621 234.135 522.439 234.296 523.202 234.61C523.966 234.924 524.66 235.385 525.245 235.967C526.209 237.436 526.668 239.178 526.553 240.931V250.86H522.889V241.715C523.031 240.609 522.751 239.489 522.104 238.58C521.835 238.217 521.477 237.93 521.064 237.747C520.651 237.564 520.198 237.491 519.749 237.534C519.235 237.499 518.722 237.601 518.261 237.831C517.801 238.061 517.411 238.409 517.131 238.841C516.489 240.136 516.217 241.582 516.346 243.022V250.86H512.682V234.66Z" fill="#5C5C5C"></path><path d="M537.807 238.057V250.861H534.143V238.057H532.573V234.66H534.143V228.65H537.807V234.66H540.686V238.057H537.807Z" fill="#5C5C5C"></path><path d="M558.221 234.66H562.147V250.86H558.221V249.293C556.876 250.574 555.107 251.318 553.249 251.383C552.192 251.403 551.146 251.178 550.192 250.724C549.238 250.271 548.403 249.602 547.753 248.77C546.394 247.061 545.654 244.943 545.654 242.76C545.654 240.578 546.394 238.46 547.753 236.75C548.448 235.972 549.293 235.339 550.237 234.891C551.18 234.442 552.204 234.186 553.249 234.137C554.199 234.145 555.136 234.36 555.995 234.766C556.853 235.172 557.613 235.76 558.221 236.489V234.66ZM549.323 242.76C549.272 244.102 549.741 245.412 550.631 246.418C551.01 246.891 551.487 247.276 552.029 247.547C552.572 247.818 553.166 247.967 553.772 247.986C554.399 248.021 555.027 247.922 555.613 247.697C556.2 247.472 556.732 247.125 557.174 246.68C557.648 246.149 558.008 245.528 558.233 244.855C558.458 244.181 558.543 243.468 558.483 242.76C558.557 242.091 558.477 241.414 558.251 240.781C558.024 240.147 557.656 239.573 557.174 239.102C556.824 238.599 556.353 238.192 555.805 237.918C555.256 237.644 554.647 237.512 554.034 237.534C553.389 237.549 552.755 237.696 552.17 237.966C551.585 238.236 551.061 238.622 550.631 239.102C549.783 240.133 549.321 241.426 549.323 242.76Z" fill="#5C5C5C"></path><path d="M569.475 234.66H573.139V236.228L574.972 234.66L577.065 234.137C578.178 234.242 579.253 234.6 580.206 235.183L578.374 238.58C577.784 238.09 577.047 237.814 576.28 237.796C574.186 237.796 573.139 239.363 573.139 242.499V250.86H569.475V234.66Z" fill="#5C5C5C"></path><path d="M584.917 227.866C585.017 227.279 585.298 226.737 585.72 226.316C586.142 225.895 586.684 225.615 587.273 225.515C587.967 225.515 588.632 225.79 589.123 226.28C589.614 226.77 589.89 227.435 589.89 228.128C589.84 228.732 589.559 229.293 589.105 229.695C588.875 229.952 588.592 230.155 588.276 230.29C587.959 230.426 587.617 230.49 587.273 230.479C586.668 230.43 586.105 230.149 585.702 229.695C585.446 229.466 585.242 229.184 585.106 228.868C584.971 228.552 584.906 228.21 584.917 227.866V227.866ZM589.366 234.66V250.86H585.441V234.66H589.366Z" fill="#5C5C5C"></path><path d="M595.909 242.76C595.975 240.494 596.906 238.339 598.512 236.736C600.118 235.133 602.276 234.203 604.546 234.137C606.888 234.221 609.119 235.149 610.828 236.75C612.336 238.39 613.173 240.534 613.173 242.76C613.173 244.986 612.336 247.131 610.828 248.77C610.012 249.608 609.035 250.271 607.955 250.72C606.876 251.169 605.716 251.395 604.546 251.383C602.276 251.317 600.118 250.388 598.512 248.785C596.906 247.182 595.975 245.026 595.909 242.76V242.76ZM599.835 242.76C599.835 244.174 600.294 245.549 601.144 246.68C602.071 247.529 603.287 247.996 604.546 247.986C605.882 247.988 607.178 247.526 608.21 246.68C609.06 245.549 609.519 244.174 609.519 242.76C609.57 241.418 609.101 240.108 608.21 239.102C607.751 238.589 607.186 238.183 606.553 237.912C605.919 237.641 605.235 237.512 604.546 237.534C603.896 237.514 603.25 237.645 602.66 237.917C602.069 238.189 601.55 238.595 601.144 239.102C600.253 240.108 599.784 241.418 599.835 242.76V242.76Z" fill="#5C5C5C"></path><path d="M397.263 89.1178C396.156 88.0398 394.811 87.2345 393.337 86.7661C391.894 85.9911 390.263 85.6294 388.626 85.7209C386.995 85.6884 385.38 86.0468 383.916 86.7661C381.028 87.9701 378.695 90.2063 377.372 93.0372C376.335 96.0873 376.335 99.3938 377.372 102.444C378.695 105.275 381.028 107.511 383.916 108.715C385.38 109.434 386.995 109.793 388.626 109.76C390.263 109.852 391.894 109.49 393.337 108.715C394.811 108.247 396.156 107.441 397.263 106.363C398.423 105.273 399.318 103.932 399.88 102.444C400.657 101.002 401.019 99.3747 400.927 97.7406C401.019 96.1064 400.657 94.4788 399.88 93.0372C399.318 91.5489 398.423 90.2084 397.263 89.1178V89.1178Z" fill="#5C5C5C"></path><path d="M303.829 22.7485C295.382 25.4349 286.71 27.3588 277.919 28.4971C259.968 31.3165 241.886 33.2351 223.742 34.2456C218.77 34.5069 213.535 34.2456 196 35.0295L198.094 124.916C198.443 131.012 198.966 136.761 199.664 142.161C212.626 156.899 228.97 168.285 247.297 175.346L249.653 176.391C268.895 183.237 289.945 183.052 309.063 175.868L314.036 173.517L322.935 168.552H323.458C325.339 167.417 327.363 166.538 329.478 165.939C333.665 164.371 335.759 169.597 337.591 172.472C339.423 175.346 338.638 176.652 337.329 177.959C336.021 179.265 330.263 183.446 313.513 189.978L311.157 190.762C289.173 198.862 265.356 197.033 243.371 189.978C236.966 187.566 230.827 184.501 225.051 180.833C219.389 177.66 213.966 174.079 208.824 170.12C207.743 169.497 206.771 168.703 205.945 167.768C207.018 171.677 208.329 175.516 209.871 179.265C215.715 194.196 224.129 207.992 234.735 220.028C275.385 221.345 315.442 210.023 349.368 187.627C377.372 169.336 404.591 145.035 439.139 143.468C439.924 137.458 440.447 131.448 440.709 125.177L442.803 35.0295L415.06 34.2456C397.002 33.2004 378.943 31.3713 361.146 28.7583C352.279 27.4352 343.529 25.4258 334.974 22.7485L319.532 17L303.829 22.7485ZM258.29 90.6857C257.211 89.125 255.762 87.855 254.072 86.9888C252.383 86.1226 250.505 85.6871 248.606 85.721C246.974 85.6885 245.359 86.0469 243.895 86.7662C242.529 87.2982 241.283 88.0978 240.231 89.1179C239.151 90.2237 238.344 91.5657 237.875 93.0373C237.099 94.4789 236.737 96.1065 236.828 97.7407C236.796 99.3695 237.155 100.982 237.875 102.444C238.402 103.889 239.202 105.219 240.231 106.363C241.283 107.384 242.529 108.183 243.895 108.715C245.359 109.434 246.974 109.793 248.606 109.76C250.465 109.724 252.294 109.285 253.966 108.473C255.638 107.66 257.113 106.495 258.29 105.057V118.383L257.243 118.906L252.27 120.212L247.821 120.735C244.858 120.628 241.935 120.009 239.184 118.906C236.531 117.836 234.126 116.236 232.117 114.202C229.937 112.162 228.238 109.663 227.145 106.886C225.803 104.021 225.089 100.903 225.051 97.7407C225.104 94.5221 225.724 91.338 226.883 88.334C228.237 85.717 230.005 83.3349 232.117 81.279C234.126 79.2457 236.531 77.645 239.184 76.5756C242.017 75.4421 245.031 74.8227 248.082 74.7466C249.77 74.7522 251.448 75.0166 253.055 75.5304L258.29 77.0982V90.6857ZM310.372 119.428L306.708 94.3438L296.501 119.428H292.052L282.368 94.3438L278.442 119.428H267.188L274.516 76.053H285.77L294.407 99.3084L303.044 76.053H314.298L321.626 119.428H310.372ZM358.267 85.721H349.107V119.428H337.853V85.721H328.431V76.053H358.267V85.721ZM410.873 106.625C409.869 109.448 408.157 111.967 405.9 113.941C403.734 116.093 401.151 117.782 398.31 118.906C395.217 120.088 391.938 120.707 388.626 120.735C385.318 120.68 382.043 120.062 378.943 118.906C376.135 117.719 373.564 116.038 371.353 113.941C369.257 111.83 367.57 109.35 366.38 106.625C364.279 100.888 364.279 94.5935 366.38 88.8566C367.57 86.1318 369.257 83.6511 371.353 81.5403C373.564 79.4438 376.135 77.762 378.943 76.5756C382.043 75.4198 385.318 74.8012 388.626 74.7466C391.938 74.7744 395.217 75.3938 398.31 76.5756C401.151 77.6989 403.734 79.3881 405.9 81.5403C408.157 83.5141 409.869 86.0332 410.873 88.8566C412.153 91.6401 412.779 94.6787 412.705 97.7407C412.779 100.803 412.153 103.841 410.873 106.625Z" fill="#5C5C5C"></path><path d="M414.013 165.155C395.431 171.949 379.99 184.752 363.763 195.466C347.536 206.179 328.431 217.937 309.063 225.253C290.427 231.805 270.952 235.676 251.223 236.75C259.136 243.853 267.531 250.401 276.348 256.348C281.059 259.483 310.372 280.387 318.485 282.477C321.626 285.352 357.22 260.006 362.454 256.348C391.505 236.489 416.369 212.45 428.932 179.265C431.453 173.234 433.552 167.035 435.213 160.713C428.005 161.413 420.895 162.902 414.013 165.155V165.155Z" fill="#5C5C5C"></path></g><defs><clipPath id="clip0_230:8869"><rect width="508" height="266" fill="white" transform="translate(196 17)"></rect></clipPath></defs></svg>